<?xml version="1.0" encoding="UTF-8"?><svg xmlns="http://www.w3.org/2000/svg" xmlns:xlink="http://www.w3.org/1999/xlink" fill-opacity="1" color-rendering="auto" color-interpolation="auto" stroke="black" text-rendering="auto" stroke-linecap="square" width="415" stroke-miterlimit="10" stroke-opacity="1" shape-rendering="auto" fill="black" stroke-dasharray="none" font-weight="normal" stroke-width="1" height="464" font-family="'Dialog'" font-style="normal" stroke-linejoin="miter" font-size="12" stroke-dashoffset="0" image-rendering="auto">
  <!--Generated by ySVG 2.5-->
  <defs id="genericDefs"/>
  <g>
    <defs id="defs1">
      <clipPath clipPathUnits="userSpaceOnUse" id="clipPath1">
        <path d="M0 0 L415 0 L415 464 L0 464 L0 0 Z"/>
      </clipPath>
      <clipPath clipPathUnits="userSpaceOnUse" id="clipPath2">
        <path d="M255 -21 L670 -21 L670 443 L255 443 L255 -21 Z"/>
      </clipPath>
    </defs>
    <g fill="white" text-rendering="geometricPrecision" shape-rendering="geometricPrecision" transform="translate(-255,21)" stroke="white">
      <rect x="255" width="415" height="464" y="-21" clip-path="url(#clipPath2)" stroke="none"/>
    </g>
    <g text-rendering="geometricPrecision" stroke-miterlimit="1.45" shape-rendering="geometricPrecision" transform="matrix(1,0,0,1,-255,21)" stroke-linecap="butt">
      <path fill="none" d="M270.5 188 L411.5 188 L411.5 228 L270.5 228 Z" clip-path="url(#clipPath2)"/>
      <text x="278.3223" y="211.9375" clip-path="url(#clipPath2)" font-family="'Consolas'" stroke="none" font-weight="bold" xml:space="preserve">Client Random Value</text>
    </g>
    <g text-rendering="geometricPrecision" stroke-miterlimit="1.45" shape-rendering="geometricPrecision" transform="matrix(1,0,0,1,-255,21)" stroke-linecap="butt">
      <path fill="none" d="M270.5 228 L411.5 228 L411.5 268 L270.5 268 Z" clip-path="url(#clipPath2)"/>
      <text x="278.3223" y="251.9375" clip-path="url(#clipPath2)" font-family="'Consolas'" stroke="none" font-weight="bold" xml:space="preserve">Server Random Value</text>
    </g>
    <g text-rendering="geometricPrecision" stroke-miterlimit="1.45" shape-rendering="geometricPrecision" transform="matrix(1,0,0,1,-255,21)" stroke-linecap="butt">
      <path fill="none" d="M270.5 101.125 L411.5 101.125 L411.5 141.125 L270.5 141.125 Z" clip-path="url(#clipPath2)"/>
      <text x="288.2188" y="125.0625" clip-path="url(#clipPath2)" font-family="'Consolas'" stroke="none" font-weight="bold" xml:space="preserve">PreMaster Secret</text>
    </g>
    <g text-rendering="geometricPrecision" stroke-miterlimit="1.45" shape-rendering="geometricPrecision" transform="matrix(1,0,0,1,-255,21)" stroke-linecap="butt">
      <path fill="none" d="M513.75 101.125 L654.75 101.125 L654.75 141.125 L513.75 141.125 Z" clip-path="url(#clipPath2)"/>
      <text x="564.457" y="125.0625" clip-path="url(#clipPath2)" font-family="'Consolas'" stroke="none" font-weight="bold" xml:space="preserve">Server</text>
    </g>
    <g text-rendering="geometricPrecision" stroke-miterlimit="1.45" shape-rendering="geometricPrecision" transform="matrix(1,0,0,1,-255,21)" stroke-linecap="butt">
      <path fill="none" d="M270.5 308 L411.5 308 L411.5 348 L270.5 348 Z" clip-path="url(#clipPath2)"/>
      <text x="298.1152" y="331.9375" clip-path="url(#clipPath2)" font-family="'Consolas'" stroke="none" font-weight="bold" xml:space="preserve">Master Secret</text>
    </g>
    <g text-rendering="geometricPrecision" stroke-miterlimit="1.45" shape-rendering="geometricPrecision" transform="matrix(1,0,0,1,-255,21)" stroke-linecap="butt">
      <path fill="none" d="M270.5 388 L411.5 388 L411.5 428 L270.5 428 Z" clip-path="url(#clipPath2)"/>
      <text x="301.4141" y="411.9375" clip-path="url(#clipPath2)" font-family="'Consolas'" stroke="none" font-weight="bold" xml:space="preserve">Key Material</text>
    </g>
    <g stroke-linecap="butt" transform="matrix(1,0,0,1,-255,21)" text-rendering="geometricPrecision" font-family="'Consolas'" shape-rendering="geometricPrecision" font-weight="bold" stroke-miterlimit="1.45">
      <text x="321.207" xml:space="preserve" y="10.9375" clip-path="url(#clipPath2)" stroke="none">Client</text>
    </g>
    <g text-rendering="geometricPrecision" stroke-miterlimit="1.45" shape-rendering="geometricPrecision" transform="matrix(1,0,0,1,-255,21)" stroke-linecap="butt">
      <path fill="none" d="M513.75 207.3125 L654.75 207.3125 L654.75 247.3125 L513.75 247.3125 Z" clip-path="url(#clipPath2)"/>
      <text x="531.4688" y="231.25" clip-path="url(#clipPath2)" font-family="'Consolas'" stroke="none" font-weight="bold" xml:space="preserve">PreMaster Secret</text>
    </g>
    <g text-rendering="geometricPrecision" stroke-miterlimit="1.45" shape-rendering="geometricPrecision" transform="matrix(1,0,0,1,-255,21)" stroke-linecap="butt">
      <path fill="none" d="M270.5 20 L411.5 20 L411.5 60 L270.5 60 Z" clip-path="url(#clipPath2)"/>
      <text x="281.6211" y="43.9375" clip-path="url(#clipPath2)" font-family="'Consolas'" stroke="none" font-weight="bold" xml:space="preserve">Diffie-Hellman/RSA</text>
    </g>
    <g stroke-linecap="butt" transform="matrix(1,0,0,1,-255,21)" text-rendering="geometricPrecision" font-family="'Consolas'" shape-rendering="geometricPrecision" font-weight="bold" stroke-miterlimit="1.45">
      <text x="505.9629" xml:space="preserve" y="178.1562" clip-path="url(#clipPath2)" stroke="none">Privare Key</text>
    </g>
    <g stroke-linecap="butt" transform="matrix(1,0,0,1,-255,21)" text-rendering="geometricPrecision" font-family="'Consolas'" shape-rendering="geometricPrecision" font-weight="bold" stroke-miterlimit="1.45">
      <text x="351.7793" xml:space="preserve" y="291.9375" clip-path="url(#clipPath2)" stroke="none">PseudoRandomFunction(PRF)</text>
    </g>
    <g stroke-linecap="butt" transform="matrix(1,0,0,1,-255,21)" text-rendering="geometricPrecision" font-family="'Consolas'" shape-rendering="geometricPrecision" font-weight="bold" stroke-miterlimit="1.45">
      <text x="426.2617" xml:space="preserve" y="113.9375" clip-path="url(#clipPath2)" stroke="none">Public Key</text>
    </g>
    <g stroke-linecap="butt" transform="matrix(1,0,0,1,-255,21)" text-rendering="geometricPrecision" font-family="'Consolas'" shape-rendering="geometricPrecision" font-weight="bold" stroke-miterlimit="1.45">
      <text x="346.9082" xml:space="preserve" y="165.0625" clip-path="url(#clipPath2)" stroke="none">combine</text>
    </g>
    <g stroke-linecap="butt" transform="matrix(1,0,0,1,-255,21)" text-rendering="geometricPrecision" font-family="'Consolas'" shape-rendering="geometricPrecision" font-weight="bold" stroke-miterlimit="1.45">
      <text x="439.5332" xml:space="preserve" y="218.1562" clip-path="url(#clipPath2)" stroke="none">combine</text>
    </g>
    <g text-rendering="geometricPrecision" stroke-miterlimit="1.45" shape-rendering="geometricPrecision" transform="matrix(1,0,0,1,-255,21)" stroke-linecap="butt">
      <path fill="none" d="M341 141.1046 L341 179.9771" clip-path="url(#clipPath2)"/>
    </g>
    <g text-rendering="geometricPrecision" stroke-miterlimit="1.45" shape-rendering="geometricPrecision" transform="matrix(1,0,0,1,-255,21)" stroke-linecap="butt">
      <path d="M341 187.9771 L346 175.9771 L341 178.9771 L336 175.9771 Z" clip-path="url(#clipPath2)" stroke="none"/>
      <path fill="none" d="M411.4872 121.125 L505.7688 121.125" clip-path="url(#clipPath2)"/>
      <path d="M513.7688 121.125 L501.7688 116.125 L504.7688 121.125 L501.7688 126.125 Z" clip-path="url(#clipPath2)" stroke="none"/>
      <path fill="none" d="M341 267.9609 L341 299.9772" clip-path="url(#clipPath2)"/>
      <path d="M341 307.9772 L346 295.9772 L341 298.9772 L336 295.9772 Z" clip-path="url(#clipPath2)" stroke="none"/>
      <path fill="none" d="M341 347.9609 L341 379.9772" clip-path="url(#clipPath2)"/>
      <path d="M341 387.9772 L346 375.9772 L341 378.9772 L336 375.9772 Z" clip-path="url(#clipPath2)" stroke="none"/>
      <path fill="none" d="M584.25 141.1129 L584.25 199.3199" clip-path="url(#clipPath2)"/>
      <path d="M584.25 207.3199 L589.25 195.3199 L584.25 198.3199 L579.25 195.3199 Z" clip-path="url(#clipPath2)" stroke="none"/>
      <path fill="none" d="M513.759 229 L419.5179 229" clip-path="url(#clipPath2)"/>
      <path d="M411.5179 229 L423.5179 234 L420.5179 229 L423.5179 224 Z" clip-path="url(#clipPath2)" stroke="none"/>
      <path fill="none" d="M341 60.004 L341 93.0995" clip-path="url(#clipPath2)"/>
      <path d="M341 101.0995 L346 89.0995 L341 92.0995 L336 89.0995 Z" clip-path="url(#clipPath2)" stroke="none"/>
    </g>
  </g>
</svg>
