<?xml version="1.0" encoding="UTF-8" standalone="no"?>
<!DOCTYPE svg PUBLIC "-//W3C//DTD SVG 1.1//EN" "http://www.w3.org/Graphics/SVG/1.1/DTD/svg11.dtd">
<!-- 由 Microsoft Visio, SVG Export 生成 tls-ssl.svg Page-1 -->
<svg xmlns="http://www.w3.org/2000/svg" xmlns:xlink="http://www.w3.org/1999/xlink" xmlns:ev="http://www.w3.org/2001/xml-events"
		xmlns:v="http://schemas.microsoft.com/visio/2003/SVGExtensions/" width="11.6929in" height="8.26772in"
		viewBox="0 0 841.89 595.276" xml:space="preserve" color-interpolation-filters="sRGB" class="st18">
	<v:documentProperties v:langID="2052" v:metric="true" v:viewMarkup="false">
		<v:userDefs>
			<v:ud v:nameU="msvSubprocessMaster" v:prompt="" v:val="VT4(Rectangle)"/>
			<v:ud v:nameU="msvNoAutoConnect" v:val="VT0(1):26"/>
		</v:userDefs>
	</v:documentProperties>

	<style type="text/css">
	<![CDATA[
		.st1 {fill:none;stroke:none;stroke-width:0.25}
		.st2 {fill:#3f3f3f;font-family:Consolas;font-size:1.5em;font-weight:bold}
		.st3 {stroke:#3f3f3f;stroke-linecap:round;stroke-linejoin:round;stroke-width:1}
		.st4 {marker-end:url(#mrkr4-18);stroke:#3f3f3f;stroke-linecap:round;stroke-linejoin:round;stroke-width:1}
		.st5 {fill:#3f3f3f;fill-opacity:1;stroke:#3f3f3f;stroke-opacity:1;stroke-width:0.28409090909091}
		.st6 {fill:#3f3f3f;font-family:Consolas;font-size:1.24999em}
		.st7 {fill:#3f3f3f;font-family:Calibri;font-size:1.08334em}
		.st8 {fill:#3f3f3f;font-family:Calibri;font-size:1.00001em}
		.st9 {font-size:1em}
		.st10 {font-size:1em;text-decoration:line-through}
		.st11 {marker-end:url(#mrkr4-64);stroke:#bf9000;stroke-linecap:round;stroke-linejoin:round;stroke-width:1}
		.st12 {fill:#bf9000;fill-opacity:1;stroke:#bf9000;stroke-opacity:1;stroke-width:0.28409090909091}
		.st13 {visibility:visible}
		.st14 {fill:none;filter:url(#filter_2);stroke:#5b9bd5;stroke-dasharray:5.25,3.75;stroke-opacity:0.25}
		.st15 {fill:none;stroke:#7f7f7f;stroke-dasharray:5.25,3.75;stroke-width:0.75}
		.st16 {fill:#3f3f3f;font-family:Consolas;font-size:1.08334em}
		.st17 {fill:#7f7f7f;stroke:#7f7f7f;stroke-linecap:butt;stroke-width:0.75}
		.st18 {fill:none;fill-rule:evenodd;font-size:12px;overflow:visible;stroke-linecap:square;stroke-miterlimit:3}
	]]>
	</style>

	<defs id="Markers">
		<g id="lend4">
			<path d="M 2 1 L 0 0 L 2 -1 L 2 1 " style="stroke:none"/>
		</g>
		<marker id="mrkr4-18" class="st5" v:arrowType="4" v:arrowSize="2" v:setback="7.04" refX="-7.04" orient="auto"
				markerUnits="strokeWidth" overflow="visible">
			<use xlink:href="#lend4" transform="scale(-3.52,-3.52) "/>
		</marker>
		<marker id="mrkr4-64" class="st12" v:arrowType="4" v:arrowSize="2" v:setback="7.04" refX="-7.04" orient="auto"
				markerUnits="strokeWidth" overflow="visible">
			<use xlink:href="#lend4" transform="scale(-3.52,-3.52) "/>
		</marker>
	</defs>
	<defs id="Filters">
		<filter id="filter_2">
			<feGaussianBlur stdDeviation="2"/>
		</filter>
	</defs>
	<g v:mID="0" v:index="1" v:groupContext="foregroundPage">
		<v:userDefs>
			<v:ud v:nameU="msvThemeOrder" v:val="VT0(0):26"/>
		</v:userDefs>
		<title>页-1</title>
		<v:pageProperties v:drawingScale="0.0393701" v:pageScale="0.0393701" v:drawingUnits="24" v:shadowOffsetX="8.50394"
				v:shadowOffsetY="-8.50394"/>
		<v:layer v:name="连接线" v:index="0"/>
		<g id="shape4-1" v:mID="4" v:groupContext="shape" transform="translate(138.898,-532.756)">
			<title>工作表.4</title>
			<desc>Client</desc>
			<v:textBlock v:margins="rect(4,4,4,4)" v:tabSpace="42.5197"/>
			<v:textRect cx="66.6142" cy="585.276" width="133.23" height="20"/>
			<rect x="0" y="575.276" width="133.228" height="20" class="st1"/>
			<text x="36.92" y="590.68" class="st2" v:langID="1033"><v:paragraph v:horizAlign="1"/><v:tabList/>Client</text>		</g>
		<g id="shape7-4" v:mID="7" v:groupContext="shape" transform="translate(557.008,-532.756)">
			<title>工作表.7</title>
			<desc>Server</desc>
			<v:textBlock v:margins="rect(4,4,4,4)" v:tabSpace="42.5197"/>
			<v:textRect cx="66.6142" cy="585.276" width="133.23" height="20"/>
			<rect x="0" y="575.276" width="133.228" height="20" class="st1"/>
			<text x="36.92" y="590.68" class="st2" v:langID="1033"><v:paragraph v:horizAlign="1"/><v:tabList/>Server</text>		</g>
		<g id="shape17-7" v:mID="17" v:groupContext="shape" transform="translate(793.701,62.5197) rotate(90)">
			<title>工作表.17</title>
			<path d="M0 595.28 L439.51 595.28" class="st3"/>
		</g>
		<g id="shape18-10" v:mID="18" v:groupContext="shape" transform="translate(1218.9,62.5197) rotate(90)">
			<title>工作表.18</title>
			<path d="M0 595.28 L439.51 595.28" class="st3"/>
		</g>
		<g id="shape20-13" v:mID="20" v:groupContext="shape" v:layerMember="0" transform="translate(198.425,-480.472)">
			<title>动态连接线</title>
			<path d="M0 588.19 L418.16 588.19" class="st4"/>
		</g>
		<g id="shape21-19" v:mID="21" v:groupContext="shape" transform="translate(226.772,-491.496)">
			<title>工作表.21</title>
			<desc>Client Hello</desc>
			<v:textBlock v:margins="rect(4,4,4,4)" v:tabSpace="42.5197"/>
			<v:textRect cx="66.6142" cy="585.276" width="133.23" height="20"/>
			<rect x="0" y="575.276" width="133.228" height="20" class="st1"/>
			<text x="17.13" y="589.78" class="st6" v:langID="1033"><v:paragraph v:horizAlign="1"/><v:tabList/>Client Hello</text>		</g>
		<g id="shape22-22" v:mID="22" v:groupContext="shape" transform="translate(235.811,-467.717)">
			<title>工作表.22</title>
			<desc>SSL version, supported ciphers, etc.</desc>
			<v:textBlock v:margins="rect(4,4,4,4)" v:tabSpace="42.5197"/>
			<v:textRect cx="144.299" cy="585.276" width="288.6" height="20"/>
			<rect x="0" y="575.276" width="288.598" height="20" class="st1"/>
			<text x="50.94" y="589.18" class="st7" v:langID="1033"><v:paragraph v:horizAlign="1"/><v:tabList/>SSL version, supported ciphers, etc.</text>		</g>
		<g id="shape24-25" v:mID="24" v:groupContext="shape" v:layerMember="0" transform="translate(623.622,-418.11)">
			<title>动态连接线.24</title>
			<path d="M0 588.19 L-418.16 588.19" class="st4"/>
		</g>
		<g id="shape25-30" v:mID="25" v:groupContext="shape" transform="translate(467.717,-429.37)">
			<title>工作表.25</title>
			<desc>Server Hello</desc>
			<v:textBlock v:margins="rect(4,4,4,4)" v:tabSpace="42.5197"/>
			<v:textRect cx="66.6142" cy="585.276" width="133.23" height="20"/>
			<rect x="0" y="575.276" width="133.228" height="20" class="st1"/>
			<text x="17.13" y="589.78" class="st6" v:langID="1033"><v:paragraph v:horizAlign="1"/><v:tabList/>Server Hello</text>		</g>
		<g id="shape26-33" v:mID="26" v:groupContext="shape" transform="translate(283.465,-345.379)">
			<title>工作表.26</title>
			<desc>Cipher Suite(RSA,TLS1.0,etc.) Server Certificate Server Key E...</desc>
			<v:textBlock v:margins="rect(4,4,4,4)" v:tabSpace="42.5197"/>
			<v:textRect cx="115.428" cy="551.505" width="230.86" height="87.5407"/>
			<rect x="0" y="507.735" width="230.856" height="87.5407" class="st1"/>
			<text x="4" y="526.31" class="st8" v:langID="1033"><v:paragraph/><v:tabList/>Cipher Suite<tspan class="st9"
						v:langID="2052">(</tspan><tspan class="st9" v:langID="2052">RSA</tspan>,TLS1.0,etc.<tspan class="st9"
						v:langID="2052">)<v:newlineChar/></tspan><tspan x="4" dy="1.2em" class="st9">Server Certificate<v:newlineChar/></tspan><tspan
						x="4" dy="1.2em" class="st9">Server Key Exchange</tspan>(public key)<v:newlineChar/><tspan x="4" dy="1.2em"
						class="st9">[</tspan>Client Certificate Request]<v:newlineChar/><tspan x="4" dy="1.2em" class="st9">Server Hello Done</tspan></text>		</g>
		<g id="shape27-43" v:mID="27" v:groupContext="shape" v:layerMember="0" transform="translate(198.425,-303.307)">
			<title>动态连接线.27</title>
			<path d="M0 588.19 L418.16 588.19" class="st4"/>
		</g>
		<g id="shape28-48" v:mID="28" v:groupContext="shape" transform="translate(226.772,-314.331)">
			<title>工作表.28</title>
			<desc>Client Key Exchange</desc>
			<v:textBlock v:margins="rect(4,4,4,4)" v:tabSpace="42.5197"/>
			<v:textRect cx="85.0394" cy="585.276" width="170.08" height="20"/>
			<rect x="0" y="575.276" width="170.079" height="20" class="st1"/>
			<text x="6.69" y="589.78" class="st6" v:langID="1033"><v:paragraph v:horizAlign="1"/><v:tabList/>Client Key Exchange</text>		</g>
		<g id="shape29-51" v:mID="29" v:groupContext="shape" transform="translate(283.465,-269.291)">
			<title>工作表.29</title>
			<desc>[Client Certificate] Certificate Verify</desc>
			<v:textBlock v:margins="rect(4,4,4,4)" v:tabSpace="42.5197"/>
			<v:textRect cx="66.6142" cy="570.472" width="133.23" height="49.6063"/>
			<rect x="0" y="545.669" width="133.228" height="49.6063" class="st1"/>
			<text x="4" y="566.57" class="st7" v:langID="1033"><v:paragraph/><v:tabList/>[Client Certificate]<v:newlineChar/><tspan
						x="4" dy="1.2em" class="st9">Certificate Verify</tspan></text>		</g>
		<g id="shape32-55" v:mID="32" v:groupContext="shape" transform="translate(283.465,-206.169)">
			<title>工作表.32</title>
			<desc>Client Finished</desc>
			<v:textBlock v:margins="rect(4,4,4,4)" v:tabSpace="42.5197"/>
			<v:textRect cx="49.6063" cy="578.189" width="99.22" height="34.1732"/>
			<rect x="0" y="561.102" width="99.2126" height="34.1732" class="st1"/>
			<text x="4" y="582.09" class="st7" v:langID="1033"><v:paragraph/><v:tabList/><tspan class="st10">Client Finished</tspan></text>		</g>
		<g id="shape33-59" v:mID="33" v:groupContext="shape" v:layerMember="0" transform="translate(198.425,-224.751)">
			<title>动态连接线.33</title>
			<path d="M0 588.19 L418.16 588.19" class="st11"/>
		</g>
		<g id="shape34-65" v:mID="34" v:groupContext="shape" transform="translate(221.102,-234.515)">
			<title>工作表.34</title>
			<desc>Change Cipher Spec</desc>
			<v:textBlock v:margins="rect(4,4,4,4)" v:tabSpace="42.5197"/>
			<v:textRect cx="66.6142" cy="585.276" width="133.23" height="20"/>
			<rect x="0" y="575.276" width="133.228" height="20" class="st1"/>
			<text x="14.3" y="589.78" class="st7" v:langID="1033"><v:paragraph v:horizAlign="1"/><v:tabList/>Change Cipher Spec</text>		</g>
		<g id="shape37-68" v:mID="37" v:groupContext="shape" v:layerMember="0" transform="translate(623.622,-162.992)">
			<title>动态连接线.37</title>
			<path d="M0 588.19 L-418.16 588.19" class="st11"/>
		</g>
		<g id="shape39-73" v:mID="39" v:groupContext="shape" transform="translate(283.465,-151.732)">
			<title>工作表.39</title>
			<desc>Server Finished</desc>
			<v:textBlock v:margins="rect(4,4,4,4)" v:tabSpace="42.5197"/>
			<v:textRect cx="42.5197" cy="585.276" width="85.04" height="20"/>
			<rect x="0" y="575.276" width="85.0394" height="20" class="st1"/>
			<text x="4" y="588.88" class="st8" v:langID="1033"><v:paragraph/><v:tabList/><tspan class="st10">Server Finished</tspan></text>		</g>
		<g id="shape40-77" v:mID="40" v:groupContext="shape" transform="translate(198.425,-109.213)">
			<title>普通双箭头</title>
			<v:userDefs>
				<v:ud v:nameU="visVersion" v:val="VT0(15):26"/>
				<v:ud v:nameU="ArrowType" v:prompt="" v:val="VT0(3):26"/>
			</v:userDefs>
			<g id="shadow40-78" v:groupContext="shadow" v:shadowOffsetX="0.345598" v:shadowOffsetY="-1.97279" v:shadowType="1"
					transform="matrix(1,0,0,1,0.345598,1.97279)" class="st13">
				<path d="M0 595.28 L11.34 583.94 L11.34 589.61 L413.86 589.61 L413.86 583.94 L425.2 595.28 L413.86 606.61 L413.86
							 600.94 L11.34 600.94 L11.34 606.61 L0 595.28 Z" class="st14"/>
			</g>
			<path d="M0 595.28 L11.34 583.94 L11.34 589.61 L413.86 589.61 L413.86 583.94 L425.2 595.28 L413.86 606.61 L413.86 600.94
						 L11.34 600.94 L11.34 606.61 L0 595.28 Z" class="st15"/>
		</g>
		<g id="shape41-82" v:mID="41" v:groupContext="shape" transform="translate(354.331,-108.388)">
			<title>工作表.41</title>
			<desc>Application Data</desc>
			<v:textBlock v:margins="rect(4,4,4,4)" v:tabSpace="42.5197"/>
			<v:textRect cx="49.6063" cy="585.276" width="99.22" height="20"/>
			<rect x="0" y="575.276" width="99.2126" height="20" class="st1"/>
			<text x="4" y="589.18" class="st7" v:langID="1033"><v:paragraph/><v:tabList/>Application Data</text>		</g>
		<g id="shape42-85" v:mID="42" v:groupContext="shape" transform="translate(340.157,-99.2126)">
			<title>工作表.42</title>
			<desc>Encrypted</desc>
			<v:textBlock v:margins="rect(4,4,4,4)" v:tabSpace="42.5197"/>
			<v:textRect cx="49.6063" cy="585.276" width="99.22" height="20"/>
			<rect x="0" y="575.276" width="99.2126" height="20" class="st1"/>
			<text x="17.44" y="589.18" class="st16" v:langID="1033"><v:paragraph v:horizAlign="1"/><v:tabList/>Encrypted</text>		</g>
		<g id="shape43-88" v:mID="43" v:groupContext="shape" transform="translate(81.4028,-496.063)">
			<title>工作表.43</title>
			<desc>generate random number</desc>
			<v:textBlock v:margins="rect(4,4,4,4)" v:tabSpace="42.5197"/>
			<v:textRect cx="74.5027" cy="585.276" width="149.01" height="20"/>
			<rect x="0" y="575.276" width="149.005" height="20" class="st1"/>
			<text x="12.68" y="588.88" class="st8" v:langID="1033"><v:paragraph v:horizAlign="1"/><v:tabList/>generate random number</text>		</g>
		<g id="shape44-91" v:mID="44" v:groupContext="shape" transform="translate(595.276,-433.543)">
			<title>工作表.44</title>
			<desc>generate random number</desc>
			<v:textBlock v:margins="rect(4,4,4,4)" v:tabSpace="42.5197"/>
			<v:textRect cx="74.5027" cy="585.276" width="149.01" height="20"/>
			<rect x="0" y="575.276" width="149.005" height="20" class="st1"/>
			<text x="12.68" y="588.88" class="st8" v:langID="1033"><v:paragraph v:horizAlign="1"/><v:tabList/>generate random number</text>		</g>
		<g id="shape46-94" v:mID="46" v:groupContext="shape" transform="translate(481.89,-176.772)">
			<title>工作表.46</title>
			<desc>Change Cipher Spec</desc>
			<v:textBlock v:margins="rect(4,4,4,4)" v:tabSpace="42.5197"/>
			<v:textRect cx="66.6142" cy="585.276" width="133.23" height="20"/>
			<rect x="0" y="575.276" width="133.228" height="20" class="st1"/>
			<text x="14.3" y="589.78" class="st7" v:langID="1033"><v:paragraph v:horizAlign="1"/><v:tabList/>Change Cipher Spec</text>		</g>
		<g id="shape47-97" v:mID="47" v:groupContext="shape" transform="translate(106.113,-240.342)">
			<title>工作表.47</title>
			<desc>generate random number pre-master-secret</desc>
			<v:textBlock v:margins="rect(4,4,4,4)" v:tabSpace="42.5197"/>
			<v:textRect cx="74.5027" cy="585.276" width="149.01" height="20"/>
			<rect x="0" y="575.276" width="149.005" height="20" class="st1"/>
			<text x="12.68" y="581.68" class="st8" v:langID="1033"><v:paragraph v:horizAlign="1"/><v:tabList/>generate random number <tspan
						x="30.54" dy="1.2em" class="st9">pre</tspan>-master-secret</text>		</g>
		<g id="shape100-101" v:mID="100" v:groupContext="shape" transform="translate(79.3701,-498.898)">
			<title>配置</title>
			<v:userDefs>
				<v:ud v:nameU="msvShapeCategories" v:prompt="" v:val="VT4(Icon)"/>
				<v:ud v:nameU="visVersion" v:prompt="" v:val="VT0(15):26"/>
			</v:userDefs>
			<path d="M10.4 591.05 C10.18 590.96 9.48 590.66 9.48 590.66 L9.52 590.08 L9.56 589.59 L9.5 588.65 L9.96 588.38 C9.96
						 588.38 10.2 588.28 10.41 588.19 C10.26 587.81 10.19 587.65 10.03 587.27 C9.81 587.36 9.09 587.66 9.09 587.66
						 L8.73 587.21 C8.55 586.99 8.34 586.78 8.07 586.57 L7.64 586.24 L7.81 585.72 C7.81 585.72 7.91 585.48 8.01
						 585.24 C7.63 585.08 7.47 585.02 7.09 584.86 C6.99 585.11 6.68 585.85 6.68 585.85 L6.12 585.79 C5.83 585.76
						 5.53 585.77 5.23 585.81 L4.7 585.88 L4.45 585.39 C4.45 585.39 4.34 585.13 4.23 584.87 C3.85 585.04 3.69
						 585.1 3.31 585.26 C3.42 585.53 3.74 586.29 3.74 586.29 L3.31 586.65 C3.1 586.82 2.91 587.03 2.72 587.27
						 L2.39 587.7 L1.87 587.53 C1.87 587.53 1.58 587.42 1.3 587.31 C1.15 587.69 1.08 587.85 0.93 588.24 C1.22
						 588.35 1.97 588.65 1.97 588.65 C1.97 588.65 1.93 589.52 1.92 589.58 C1.93 589.65 1.94 589.84 1.94 589.84
						 C1.94 589.84 1.98 590.3 1.98 590.3 L1.71 590.55 C1.63 590.63 1.6 590.65 0.92 590.92 C1.07 591.31 1.13 591.47
						 1.28 591.85 C1.56 591.74 2.36 591.43 2.36 591.43 L2.77 592 C2.89 592.15 3.07 592.33 3.29 592.51 L3.69 592.85
						 L3.51 593.35 C3.51 593.35 3.39 593.64 3.27 593.92 C3.65 594.08 3.8 594.15 4.19 594.31 C4.3 594.05 4.63 593.29
						 4.63 593.29 L5.2 593.37 C5.47 593.41 5.77 593.42 6.07 593.39 L6.6 593.34 L6.83 593.83 C6.83 593.83 6.94
						 594.09 7.04 594.35 C7.43 594.2 7.58 594.14 7.97 593.98 C7.87 593.74 7.57 592.98 7.57 592.98 L8.14 592.57
						 C8.31 592.43 8.49 592.24 8.69 592.01 L9.02 591.6 L9.54 591.78 C9.54 591.78 9.78 591.88 10.01 591.98 C10.17
						 591.59 10.24 591.43 10.4 591.05 ZM10.23 590.17 C10.23 590.17 10.22 590.19 10.22 590.21 C10.32 590.25 11.33
						 590.67 11.33 590.67 L10.39 592.9 C10.39 592.9 9.36 592.47 9.26 592.43 C9.25 592.44 9.24 592.46 9.24 592.46
						 C9.01 592.73 8.79 592.95 8.56 593.14 C8.56 593.14 8.48 593.19 8.43 593.23 C8.47 593.33 8.89 594.38 8.89
						 594.38 L6.65 595.28 C6.65 595.28 6.21 594.19 6.17 594.09 C6.15 594.09 6.13 594.1 6.13 594.1 C5.77 594.13
						 5.43 594.12 5.1 594.07 C5.1 594.07 5.08 594.07 5.06 594.07 C5.02 594.17 4.55 595.25 4.55 595.25 L2.34 594.29
						 C2.34 594.29 2.82 593.17 2.86 593.08 C2.84 593.06 2.83 593.05 2.83 593.05 C2.58 592.84 2.37 592.63 2.2 592.41
						 C2.2 592.41 2.14 592.34 2.11 592.29 C2.01 592.33 0.88 592.77 0.88 592.77 L0 590.52 C0 590.52 1.21 590.05
						 1.21 590.04 C1.21 590.04 1.23 590.04 1.25 590.03 C1.24 589.97 1.23 589.89 1.23 589.89 L1.21 589.59 C1.21
						 589.59 1.23 589.21 1.24 589.12 C1.14 589.08 0.01 588.63 0.01 588.63 L0.91 586.38 C0.91 586.38 2.03 586.83
						 2.13 586.87 C2.14 586.86 2.16 586.84 2.16 586.84 C2.38 586.55 2.61 586.31 2.85 586.11 C2.85 586.11 2.87
						 586.1 2.88 586.08 C2.84 585.99 2.38 584.89 2.38 584.89 L4.61 583.94 C4.61 583.94 5.06 585.01 5.1 585.11
						 C5.12 585.11 5.14 585.11 5.14 585.11 C5.49 585.06 5.85 585.05 6.19 585.09 C6.19 585.09 6.21 585.09 6.23
						 585.09 C6.27 584.99 6.7 583.94 6.7 583.94 L8.93 584.86 C8.93 584.86 8.51 585.89 8.47 585.99 C8.48 586 8.5
						 586.01 8.5 586.01 C8.82 586.26 9.07 586.5 9.28 586.76 C9.28 586.76 9.29 586.78 9.31 586.8 C9.4 586.76 10.42
						 586.34 10.42 586.34 L11.34 588.58 C11.34 588.58 10.33 589 10.23 589.04 C10.23 589.06 10.23 589.08 10.23
						 589.08 C10.26 589.27 10.27 589.43 10.27 589.59 C10.27 589.76 10.25 589.95 10.23 590.17 ZM6.69 590.78 C7.35
						 590.26 7.45 589.3 6.93 588.64 C6.4 587.98 5.45 587.88 4.79 588.4 C4.13 588.93 4.03 589.89 4.55 590.54 C5.08
						 591.2 6.03 591.31 6.69 590.78 ZM5.99 587.37 C6.58 587.44 7.11 587.73 7.48 588.2 C8.25 589.16 8.09 590.57
						 7.13 591.34 C6.67 591.71 6.09 591.88 5.49 591.81 C4.9 591.75 4.37 591.45 4 590.99 C3.67 590.58 3.51 590.08
						 3.51 589.59 C3.51 588.94 3.8 588.29 4.35 587.85 C4.81 587.48 5.39 587.31 5.99 587.37 Z" class="st17"/>
		</g>
		<g id="shape101-103" v:mID="101" v:groupContext="shape" transform="translate(102.942,-250.039)">
			<title>配置.101</title>
			<v:userDefs>
				<v:ud v:nameU="msvShapeCategories" v:prompt="" v:val="VT4(Icon)"/>
				<v:ud v:nameU="visVersion" v:prompt="" v:val="VT0(15):26"/>
			</v:userDefs>
			<path d="M10.4 591.05 C10.18 590.96 9.48 590.66 9.48 590.66 L9.52 590.08 L9.56 589.59 L9.5 588.65 L9.96 588.38 C9.96
						 588.38 10.2 588.28 10.41 588.19 C10.26 587.81 10.19 587.65 10.03 587.27 C9.81 587.36 9.09 587.66 9.09 587.66
						 L8.73 587.21 C8.55 586.99 8.34 586.78 8.07 586.57 L7.64 586.24 L7.81 585.72 C7.81 585.72 7.91 585.48 8.01
						 585.24 C7.63 585.08 7.47 585.02 7.09 584.86 C6.99 585.11 6.68 585.85 6.68 585.85 L6.12 585.79 C5.83 585.76
						 5.53 585.77 5.23 585.81 L4.7 585.88 L4.45 585.39 C4.45 585.39 4.34 585.13 4.23 584.87 C3.85 585.04 3.69
						 585.1 3.31 585.26 C3.42 585.53 3.74 586.29 3.74 586.29 L3.31 586.65 C3.1 586.82 2.91 587.03 2.72 587.27
						 L2.39 587.7 L1.87 587.53 C1.87 587.53 1.58 587.42 1.3 587.31 C1.15 587.69 1.08 587.85 0.93 588.24 C1.22
						 588.35 1.97 588.65 1.97 588.65 C1.97 588.65 1.93 589.52 1.92 589.58 C1.93 589.65 1.94 589.84 1.94 589.84
						 C1.94 589.84 1.98 590.3 1.98 590.3 L1.71 590.55 C1.63 590.63 1.6 590.65 0.92 590.92 C1.07 591.31 1.13 591.47
						 1.28 591.85 C1.56 591.74 2.36 591.43 2.36 591.43 L2.77 592 C2.89 592.15 3.07 592.33 3.29 592.51 L3.69 592.85
						 L3.51 593.35 C3.51 593.35 3.39 593.64 3.27 593.92 C3.65 594.08 3.8 594.15 4.19 594.31 C4.3 594.05 4.63 593.29
						 4.63 593.29 L5.2 593.37 C5.47 593.41 5.77 593.42 6.07 593.39 L6.6 593.34 L6.83 593.83 C6.83 593.83 6.94
						 594.09 7.04 594.35 C7.43 594.2 7.58 594.14 7.97 593.98 C7.87 593.74 7.57 592.98 7.57 592.98 L8.14 592.57
						 C8.31 592.43 8.49 592.24 8.69 592.01 L9.02 591.6 L9.54 591.78 C9.54 591.78 9.78 591.88 10.01 591.98 C10.17
						 591.59 10.24 591.43 10.4 591.05 ZM10.23 590.17 C10.23 590.17 10.22 590.19 10.22 590.21 C10.32 590.25 11.33
						 590.67 11.33 590.67 L10.39 592.9 C10.39 592.9 9.36 592.47 9.26 592.43 C9.25 592.44 9.24 592.46 9.24 592.46
						 C9.01 592.73 8.79 592.95 8.56 593.14 C8.56 593.14 8.48 593.19 8.43 593.23 C8.47 593.33 8.89 594.38 8.89
						 594.38 L6.65 595.28 C6.65 595.28 6.21 594.19 6.17 594.09 C6.15 594.09 6.13 594.1 6.13 594.1 C5.77 594.13
						 5.43 594.12 5.1 594.07 C5.1 594.07 5.08 594.07 5.06 594.07 C5.02 594.17 4.55 595.25 4.55 595.25 L2.34 594.29
						 C2.34 594.29 2.82 593.17 2.86 593.08 C2.84 593.06 2.83 593.05 2.83 593.05 C2.58 592.84 2.37 592.63 2.2 592.41
						 C2.2 592.41 2.14 592.34 2.11 592.29 C2.01 592.33 0.88 592.77 0.88 592.77 L0 590.52 C0 590.52 1.21 590.05
						 1.21 590.04 C1.21 590.04 1.23 590.04 1.25 590.03 C1.24 589.97 1.23 589.89 1.23 589.89 L1.21 589.59 C1.21
						 589.59 1.23 589.21 1.24 589.12 C1.14 589.08 0.01 588.63 0.01 588.63 L0.91 586.38 C0.91 586.38 2.03 586.83
						 2.13 586.87 C2.14 586.86 2.16 586.84 2.16 586.84 C2.38 586.55 2.61 586.31 2.85 586.11 C2.85 586.11 2.87
						 586.1 2.88 586.08 C2.84 585.99 2.38 584.89 2.38 584.89 L4.61 583.94 C4.61 583.94 5.06 585.01 5.1 585.11
						 C5.12 585.11 5.14 585.11 5.14 585.11 C5.49 585.06 5.85 585.05 6.19 585.09 C6.19 585.09 6.21 585.09 6.23
						 585.09 C6.27 584.99 6.7 583.94 6.7 583.94 L8.93 584.86 C8.93 584.86 8.51 585.89 8.47 585.99 C8.48 586 8.5
						 586.01 8.5 586.01 C8.82 586.26 9.07 586.5 9.28 586.76 C9.28 586.76 9.29 586.78 9.31 586.8 C9.4 586.76 10.42
						 586.34 10.42 586.34 L11.34 588.58 C11.34 588.58 10.33 589 10.23 589.04 C10.23 589.06 10.23 589.08 10.23
						 589.08 C10.26 589.27 10.27 589.43 10.27 589.59 C10.27 589.76 10.25 589.95 10.23 590.17 ZM6.69 590.78 C7.35
						 590.26 7.45 589.3 6.93 588.64 C6.4 587.98 5.45 587.88 4.79 588.4 C4.13 588.93 4.03 589.89 4.55 590.54 C5.08
						 591.2 6.03 591.31 6.69 590.78 ZM5.99 587.37 C6.58 587.44 7.11 587.73 7.48 588.2 C8.25 589.16 8.09 590.57
						 7.13 591.34 C6.67 591.71 6.09 591.88 5.49 591.81 C4.9 591.75 4.37 591.45 4 590.99 C3.67 590.58 3.51 590.08
						 3.51 589.59 C3.51 588.94 3.8 588.29 4.35 587.85 C4.81 587.48 5.39 587.31 5.99 587.37 Z" class="st17"/>
		</g>
		<g id="shape102-105" v:mID="102" v:groupContext="shape" transform="translate(595.276,-436.386)">
			<title>配置.102</title>
			<v:userDefs>
				<v:ud v:nameU="msvShapeCategories" v:prompt="" v:val="VT4(Icon)"/>
				<v:ud v:nameU="visVersion" v:prompt="" v:val="VT0(15):26"/>
			</v:userDefs>
			<path d="M10.4 591.05 C10.18 590.96 9.48 590.66 9.48 590.66 L9.52 590.08 L9.56 589.59 L9.5 588.65 L9.96 588.38 C9.96
						 588.38 10.2 588.28 10.41 588.19 C10.26 587.81 10.19 587.65 10.03 587.27 C9.81 587.36 9.09 587.66 9.09 587.66
						 L8.73 587.21 C8.55 586.99 8.34 586.78 8.07 586.57 L7.64 586.24 L7.81 585.72 C7.81 585.72 7.91 585.48 8.01
						 585.24 C7.63 585.08 7.47 585.02 7.09 584.86 C6.99 585.11 6.68 585.85 6.68 585.85 L6.12 585.79 C5.83 585.76
						 5.53 585.77 5.23 585.81 L4.7 585.88 L4.45 585.39 C4.45 585.39 4.34 585.13 4.23 584.87 C3.85 585.04 3.69
						 585.1 3.31 585.26 C3.42 585.53 3.74 586.29 3.74 586.29 L3.31 586.65 C3.1 586.82 2.91 587.03 2.72 587.27
						 L2.39 587.7 L1.87 587.53 C1.87 587.53 1.58 587.42 1.3 587.31 C1.15 587.69 1.08 587.85 0.93 588.24 C1.22
						 588.35 1.97 588.65 1.97 588.65 C1.97 588.65 1.93 589.52 1.92 589.58 C1.93 589.65 1.94 589.84 1.94 589.84
						 C1.94 589.84 1.98 590.3 1.98 590.3 L1.71 590.55 C1.63 590.63 1.6 590.65 0.92 590.92 C1.07 591.31 1.13 591.47
						 1.28 591.85 C1.56 591.74 2.36 591.43 2.36 591.43 L2.77 592 C2.89 592.15 3.07 592.33 3.29 592.51 L3.69 592.85
						 L3.51 593.35 C3.51 593.35 3.39 593.64 3.27 593.92 C3.65 594.08 3.8 594.15 4.19 594.31 C4.3 594.05 4.63 593.29
						 4.63 593.29 L5.2 593.37 C5.47 593.41 5.77 593.42 6.07 593.39 L6.6 593.34 L6.83 593.83 C6.83 593.83 6.94
						 594.09 7.04 594.35 C7.43 594.2 7.58 594.14 7.97 593.98 C7.87 593.74 7.57 592.98 7.57 592.98 L8.14 592.57
						 C8.31 592.43 8.49 592.24 8.69 592.01 L9.02 591.6 L9.54 591.78 C9.54 591.78 9.78 591.88 10.01 591.98 C10.17
						 591.59 10.24 591.43 10.4 591.05 ZM10.23 590.17 C10.23 590.17 10.22 590.19 10.22 590.21 C10.32 590.25 11.33
						 590.67 11.33 590.67 L10.39 592.9 C10.39 592.9 9.36 592.47 9.26 592.43 C9.25 592.44 9.24 592.46 9.24 592.46
						 C9.01 592.73 8.79 592.95 8.56 593.14 C8.56 593.14 8.48 593.19 8.43 593.23 C8.47 593.33 8.89 594.38 8.89
						 594.38 L6.65 595.28 C6.65 595.28 6.21 594.19 6.17 594.09 C6.15 594.09 6.13 594.1 6.13 594.1 C5.77 594.13
						 5.43 594.12 5.1 594.07 C5.1 594.07 5.08 594.07 5.06 594.07 C5.02 594.17 4.55 595.25 4.55 595.25 L2.34 594.29
						 C2.34 594.29 2.82 593.17 2.86 593.08 C2.84 593.06 2.83 593.05 2.83 593.05 C2.58 592.84 2.37 592.63 2.2 592.41
						 C2.2 592.41 2.14 592.34 2.11 592.29 C2.01 592.33 0.88 592.77 0.88 592.77 L0 590.52 C0 590.52 1.21 590.05
						 1.21 590.04 C1.21 590.04 1.23 590.04 1.25 590.03 C1.24 589.97 1.23 589.89 1.23 589.89 L1.21 589.59 C1.21
						 589.59 1.23 589.21 1.24 589.12 C1.14 589.08 0.01 588.63 0.01 588.63 L0.91 586.38 C0.91 586.38 2.03 586.83
						 2.13 586.87 C2.14 586.86 2.16 586.84 2.16 586.84 C2.38 586.55 2.61 586.31 2.85 586.11 C2.85 586.11 2.87
						 586.1 2.88 586.08 C2.84 585.99 2.38 584.89 2.38 584.89 L4.61 583.94 C4.61 583.94 5.06 585.01 5.1 585.11
						 C5.12 585.11 5.14 585.11 5.14 585.11 C5.49 585.06 5.85 585.05 6.19 585.09 C6.19 585.09 6.21 585.09 6.23
						 585.09 C6.27 584.99 6.7 583.94 6.7 583.94 L8.93 584.86 C8.93 584.86 8.51 585.89 8.47 585.99 C8.48 586 8.5
						 586.01 8.5 586.01 C8.82 586.26 9.07 586.5 9.28 586.76 C9.28 586.76 9.29 586.78 9.31 586.8 C9.4 586.76 10.42
						 586.34 10.42 586.34 L11.34 588.58 C11.34 588.58 10.33 589 10.23 589.04 C10.23 589.06 10.23 589.08 10.23
						 589.08 C10.26 589.27 10.27 589.43 10.27 589.59 C10.27 589.76 10.25 589.95 10.23 590.17 ZM6.69 590.78 C7.35
						 590.26 7.45 589.3 6.93 588.64 C6.4 587.98 5.45 587.88 4.79 588.4 C4.13 588.93 4.03 589.89 4.55 590.54 C5.08
						 591.2 6.03 591.31 6.69 590.78 ZM5.99 587.37 C6.58 587.44 7.11 587.73 7.48 588.2 C8.25 589.16 8.09 590.57
						 7.13 591.34 C6.67 591.71 6.09 591.88 5.49 591.81 C4.9 591.75 4.37 591.45 4 590.99 C3.67 590.58 3.51 590.08
						 3.51 589.59 C3.51 588.94 3.8 588.29 4.35 587.85 C4.81 587.48 5.39 587.31 5.99 587.37 Z" class="st17"/>
		</g>
		<g id="shape103-107" v:mID="103" v:groupContext="shape" transform="translate(634.961,-299.213)">
			<title>配置.103</title>
			<v:userDefs>
				<v:ud v:nameU="msvShapeCategories" v:prompt="" v:val="VT4(Icon)"/>
				<v:ud v:nameU="visVersion" v:prompt="" v:val="VT0(15):26"/>
			</v:userDefs>
			<path d="M10.4 591.05 C10.18 590.96 9.48 590.66 9.48 590.66 L9.52 590.08 L9.56 589.59 L9.5 588.65 L9.96 588.38 C9.96
						 588.38 10.2 588.28 10.41 588.19 C10.26 587.81 10.19 587.65 10.03 587.27 C9.81 587.36 9.09 587.66 9.09 587.66
						 L8.73 587.21 C8.55 586.99 8.34 586.78 8.07 586.57 L7.64 586.24 L7.81 585.72 C7.81 585.72 7.91 585.48 8.01
						 585.24 C7.63 585.08 7.47 585.02 7.09 584.86 C6.99 585.11 6.68 585.85 6.68 585.85 L6.12 585.79 C5.83 585.76
						 5.53 585.77 5.23 585.81 L4.7 585.88 L4.45 585.39 C4.45 585.39 4.34 585.13 4.23 584.87 C3.85 585.04 3.69
						 585.1 3.31 585.26 C3.42 585.53 3.74 586.29 3.74 586.29 L3.31 586.65 C3.1 586.82 2.91 587.03 2.72 587.27
						 L2.39 587.7 L1.87 587.53 C1.87 587.53 1.58 587.42 1.3 587.31 C1.15 587.69 1.08 587.85 0.93 588.24 C1.22
						 588.35 1.97 588.65 1.97 588.65 C1.97 588.65 1.93 589.52 1.92 589.58 C1.93 589.65 1.94 589.84 1.94 589.84
						 C1.94 589.84 1.98 590.3 1.98 590.3 L1.71 590.55 C1.63 590.63 1.6 590.65 0.92 590.92 C1.07 591.31 1.13 591.47
						 1.28 591.85 C1.56 591.74 2.36 591.43 2.36 591.43 L2.77 592 C2.89 592.15 3.07 592.33 3.29 592.51 L3.69 592.85
						 L3.51 593.35 C3.51 593.35 3.39 593.64 3.27 593.92 C3.65 594.08 3.8 594.15 4.19 594.31 C4.3 594.05 4.63 593.29
						 4.63 593.29 L5.2 593.37 C5.47 593.41 5.77 593.42 6.07 593.39 L6.6 593.34 L6.83 593.83 C6.83 593.83 6.94
						 594.09 7.04 594.35 C7.43 594.2 7.58 594.14 7.97 593.98 C7.87 593.74 7.57 592.98 7.57 592.98 L8.14 592.57
						 C8.31 592.43 8.49 592.24 8.69 592.01 L9.02 591.6 L9.54 591.78 C9.54 591.78 9.78 591.88 10.01 591.98 C10.17
						 591.59 10.24 591.43 10.4 591.05 ZM10.23 590.17 C10.23 590.17 10.22 590.19 10.22 590.21 C10.32 590.25 11.33
						 590.67 11.33 590.67 L10.39 592.9 C10.39 592.9 9.36 592.47 9.26 592.43 C9.25 592.44 9.24 592.46 9.24 592.46
						 C9.01 592.73 8.79 592.95 8.56 593.14 C8.56 593.14 8.48 593.19 8.43 593.23 C8.47 593.33 8.89 594.38 8.89
						 594.38 L6.65 595.28 C6.65 595.28 6.21 594.19 6.17 594.09 C6.15 594.09 6.13 594.1 6.13 594.1 C5.77 594.13
						 5.43 594.12 5.1 594.07 C5.1 594.07 5.08 594.07 5.06 594.07 C5.02 594.17 4.55 595.25 4.55 595.25 L2.34 594.29
						 C2.34 594.29 2.82 593.17 2.86 593.08 C2.84 593.06 2.83 593.05 2.83 593.05 C2.58 592.84 2.37 592.63 2.2 592.41
						 C2.2 592.41 2.14 592.34 2.11 592.29 C2.01 592.33 0.88 592.77 0.88 592.77 L0 590.52 C0 590.52 1.21 590.05
						 1.21 590.04 C1.21 590.04 1.23 590.04 1.25 590.03 C1.24 589.97 1.23 589.89 1.23 589.89 L1.21 589.59 C1.21
						 589.59 1.23 589.21 1.24 589.12 C1.14 589.08 0.01 588.63 0.01 588.63 L0.91 586.38 C0.91 586.38 2.03 586.83
						 2.13 586.87 C2.14 586.86 2.16 586.84 2.16 586.84 C2.38 586.55 2.61 586.31 2.85 586.11 C2.85 586.11 2.87
						 586.1 2.88 586.08 C2.84 585.99 2.38 584.89 2.38 584.89 L4.61 583.94 C4.61 583.94 5.06 585.01 5.1 585.11
						 C5.12 585.11 5.14 585.11 5.14 585.11 C5.49 585.06 5.85 585.05 6.19 585.09 C6.19 585.09 6.21 585.09 6.23
						 585.09 C6.27 584.99 6.7 583.94 6.7 583.94 L8.93 584.86 C8.93 584.86 8.51 585.89 8.47 585.99 C8.48 586 8.5
						 586.01 8.5 586.01 C8.82 586.26 9.07 586.5 9.28 586.76 C9.28 586.76 9.29 586.78 9.31 586.8 C9.4 586.76 10.42
						 586.34 10.42 586.34 L11.34 588.58 C11.34 588.58 10.33 589 10.23 589.04 C10.23 589.06 10.23 589.08 10.23
						 589.08 C10.26 589.27 10.27 589.43 10.27 589.59 C10.27 589.76 10.25 589.95 10.23 590.17 ZM6.69 590.78 C7.35
						 590.26 7.45 589.3 6.93 588.64 C6.4 587.98 5.45 587.88 4.79 588.4 C4.13 588.93 4.03 589.89 4.55 590.54 C5.08
						 591.2 6.03 591.31 6.69 590.78 ZM5.99 587.37 C6.58 587.44 7.11 587.73 7.48 588.2 C8.25 589.16 8.09 590.57
						 7.13 591.34 C6.67 591.71 6.09 591.88 5.49 591.81 C4.9 591.75 4.37 591.45 4 590.99 C3.67 590.58 3.51 590.08
						 3.51 589.59 C3.51 588.94 3.8 588.29 4.35 587.85 C4.81 587.48 5.39 587.31 5.99 587.37 Z" class="st17"/>
		</g>
		<g id="shape104-109" v:mID="104" v:groupContext="shape" transform="translate(637.795,-294.882)">
			<title>工作表.104</title>
			<desc>decrypt</desc>
			<v:textBlock v:margins="rect(4,4,4,4)" v:tabSpace="42.5197"/>
			<v:textRect cx="35.4331" cy="585.276" width="70.87" height="20"/>
			<rect x="0" y="575.276" width="70.8661" height="20" class="st1"/>
			<text x="16.79" y="588.88" class="st8" v:langID="1033"><v:paragraph v:horizAlign="1"/><v:tabList/>decrypt</text>		</g>
	</g>
</svg>
